<svg width="16" height="18" viewBox="0 0 16 18" fill="none" xmlns="http://www.w3.org/2000/svg">
<path d="M7.29289 17.2071C7.68342 17.5976 8.31658 17.5976 8.70711 17.2071L15.0711 10.8431C15.4616 10.4526 15.4616 9.81946 15.0711 9.42893C14.6805 9.03841 14.0474 9.03841 13.6569 9.42893L8 15.0858L2.34315 9.42893C1.95262 9.03841 1.31946 9.03841 0.928932 9.42893C0.538408 9.81946 0.538408 10.4526 0.928932 10.8431L7.29289 17.2071ZM9 1.5C9 0.947714 8.55228 0.5 8 0.5C7.44772 0.5 7 0.947714 7 1.5H9ZM9 16.5V1.5H7L7 16.5H9Z" fill="white"/>
</svg>
