<svg width="20" height="20" viewBox="0 0 20 20" fill="none" xmlns="http://www.w3.org/2000/svg">
<g clip-path="url(#clip0_191_16808)">
<path d="M20 9.69507e-06C12.6667 1.03346e-05 6.66666 5.08626e-06 3.53654e-06 3.8147e-06C3.53654e-06 3.8147e-06 0 1.13315 0 1.60825L2.10901e-05 20C-9.77019e-06 19.6667 1.90057e-05 18.1831 2.10901e-05 20C7 20 13 20 20 20C20 20 20 18.8722 20 18.3971V9.69507e-06Z" fill="#0B67B2"/>
<path d="M20 1.32487C20 0.833561 19.7181 0.320174 19.3696 0.204248C19.3305 0.193207 19.2874 0.176647 19.2482 0.165606L12.2905 6.13856V-2.58287e-06C10.6667 -2.58287e-06 9.33333 -2.58287e-06 7.70948 -7.62939e-06V6.07231L1.76194 0.966048C1.38606 0.888764 1.01018 0.789398 0.630384 0.662432C0.281911 0.552026 0 0.833561 0 1.32487V2.47309L5.01175 6.77339H0V13.2321H5.24276L0 17.7312V18.6807C0 19.172 0.281911 19.6853 0.630384 19.8013C0.747847 19.8399 0.865309 19.873 0.978857 19.9062L7.70556 14.1264V20C9.33333 20 10.6667 20 12.2866 20V14.0546L18.0384 19.0008C18.4808 19.0836 18.9233 19.194 19.3657 19.3431C19.7142 19.459 19.9961 19.1775 19.9961 18.6862V17.6704L14.8316 13.2376H19.9961V6.77891H15.0626L19.9961 2.54485C20 2.13083 20 1.72785 20 1.32487Z" fill="#FF473E"/>
<path d="M16.1668 13.7027L20 16.972V18.2556L14.6633 13.7027H12.6547L19.0877 19.1936C18.4377 19.0016 19.1994 19.9506 18.5494 19.8793L12.6429 14.9808V20C12.408 20.0384 12.1731 19.9561 11.9381 20V12.7208H20V13.7082H16.1668V13.7027ZM7.35709 20C7.59201 19.9616 7.82694 19.9232 8.06186 19.8793V12.7153H0V13.7027H3.91151L0 17.0379V18.3215L5.41504 13.7027H7.35709V13.7575L0.458105 19.6434C0.512921 19.6818 0.571652 19.7148 0.630384 19.7367C0.939702 19.8354 1.24902 19.9232 1.55834 19.9945L7.35709 15.0466V20ZM0 6.29731V7.2847H8.06186V8.40053e-07C7.82694 0.0438846 7.59201 -0.0383937 7.35709 4.50294e-06V5.15634L2.6899 1.17389C2.01644 1.09161 1.34299 0.954471 0.669538 0.735052L7.18872 6.29731H5.18011L0 1.87603V3.15963L3.6805 6.29731H0ZM12.6429 1.30385e-07C12.408 0.0383984 12.1731 -0.0438813 11.9381 2.42703e-06V7.2847H20V6.29731H16.3978L20 3.22545V1.94185L14.8943 6.29731H12.8857L19.6868 0.493692C19.5928 0.383983 19.4871 0.301701 19.3696 0.263303C19.1386 0.186506 18.8977 0.0603402 18.6667 1.30385e-07L12.6429 5.21668V1.30385e-07Z" fill="#E8E8E8"/>
</g>
<defs>
<clipPath id="clip0_191_16808">
<rect width="20" height="20" rx="10" fill="white"/>
</clipPath>
</defs>
</svg>
