<svg width="44" height="44" viewBox="0 0 44 44" fill="none" xmlns="http://www.w3.org/2000/svg">
<rect x="4" y="4" width="35" height="35" fill="#EFB648"/>
<path d="M37.5556 2C38.7343 2 39.8648 2.46825 40.6983 3.30175C41.5317 4.13524 42 5.2657 42 6.44444V37.5556C42 38.7343 41.5317 39.8648 40.6983 40.6983C39.8648 41.5317 38.7343 42 37.5556 42H6.44444C5.2657 42 4.13524 41.5317 3.30175 40.6983C2.46825 39.8648 2 38.7343 2 37.5556V6.44444C2 5.2657 2.46825 4.13524 3.30175 3.30175C4.13524 2.46825 5.2657 2 6.44444 2H37.5556ZM36.4444 36.4444V24.6667C36.4444 22.7453 35.6812 20.9027 34.3226 19.5441C32.964 18.1855 31.1213 17.4222 29.2 17.4222C27.3111 17.4222 25.1111 18.5778 24.0444 20.3111V17.8444H17.8444V36.4444H24.0444V25.4889C24.0444 23.7778 25.4222 22.3778 27.1333 22.3778C27.9585 22.3778 28.7498 22.7056 29.3332 23.289C29.9167 23.8724 30.2444 24.6638 30.2444 25.4889V36.4444H36.4444ZM10.6222 14.3556C11.6124 14.3556 12.562 13.9622 13.2621 13.2621C13.9622 12.562 14.3556 11.6124 14.3556 10.6222C14.3556 8.55556 12.6889 6.86667 10.6222 6.86667C9.62619 6.86667 8.67095 7.26234 7.96664 7.96664C7.26234 8.67095 6.86667 9.62619 6.86667 10.6222C6.86667 12.6889 8.55556 14.3556 10.6222 14.3556ZM13.7111 36.4444V17.8444H7.55556V36.4444H13.7111Z" fill="#0F172A"/>
<path d="M18.8444 18.8444H23.0444V20.3111V23.8442L24.8961 20.8352C25.7753 19.4065 27.6479 18.4222 29.2 18.4222C30.8561 18.4222 32.4444 19.0801 33.6155 20.2512C34.7866 21.4222 35.4444 23.0105 35.4444 24.6667V35.4444H31.2444V25.4889C31.2444 24.3986 30.8113 23.3529 30.0403 22.5819C29.2693 21.8109 28.2237 21.3778 27.1333 21.3778C24.8606 21.3778 23.0444 23.2349 23.0444 25.4889V35.4444H18.8444V18.8444ZM41.4054 2.59464C40.3843 1.57361 38.9995 1 37.5556 1H6.44444C5.00049 1 3.61567 1.57361 2.59464 2.59464C1.57361 3.61567 1 5.00049 1 6.44444V37.5556C1 38.9995 1.57361 40.3843 2.59464 41.4054C3.61567 42.4264 5.00049 43 6.44444 43H37.5556C38.9995 43 40.3843 42.4264 41.4054 41.4054C42.4264 40.3843 43 38.9995 43 37.5556V6.44444C43 5.00049 42.4264 3.61567 41.4054 2.59464ZM12.555 12.555C12.0424 13.0676 11.3471 13.3556 10.6222 13.3556C9.1001 13.3556 7.86667 12.1289 7.86667 10.6222C7.86667 9.8914 8.15698 9.19052 8.67375 8.67375C9.19052 8.15698 9.8914 7.86667 10.6222 7.86667C12.1289 7.86667 13.3556 9.1001 13.3556 10.6222C13.3556 11.3471 13.0676 12.0424 12.555 12.555ZM8.55556 18.8444H12.7111V35.4444H8.55556V18.8444Z" stroke="#EFB648" stroke-opacity="0.25" stroke-width="2"/>
</svg>
