<svg width="44" height="44" viewBox="0 0 44 44" fill="none" xmlns="http://www.w3.org/2000/svg">
<rect x="4" y="4" width="35" height="35" rx="17.5" fill="#EFB648"/>
<path d="M21.9067 2.00005C16.6185 2.02473 11.5554 4.14276 7.82483 7.89082C4.09426 11.6389 1.99994 16.7119 2 22.0001C2 27.3044 4.10714 32.3915 7.85786 36.1422C11.6086 39.8929 16.6957 42.0001 22 42.0001C27.3043 42.0001 32.3914 39.8929 36.1421 36.1422C39.8929 32.3915 42 27.3044 42 22.0001C42 16.6957 39.8929 11.6086 36.1421 7.85792C32.3914 4.10719 27.3043 2.00005 22 2.00005C21.9689 1.99998 21.9378 1.99998 21.9067 2.00005ZM30.1767 14.0401C30.3433 14.0367 30.7117 14.0784 30.9517 14.2734C31.1111 14.4119 31.2129 14.6052 31.2367 14.8151C31.2633 14.9701 31.2967 15.3251 31.27 15.6017C30.97 18.7651 29.6667 26.4384 29.0033 29.9801C28.7233 31.4801 28.1717 31.9817 27.6367 32.0301C26.4767 32.1384 25.595 31.2634 24.47 30.5267C22.71 29.3717 21.715 28.6534 20.0067 27.5267C18.0317 26.2267 19.3117 25.5101 20.4367 24.3434C20.7317 24.0367 25.8483 19.3817 25.9483 18.9601C25.96 18.9067 25.9717 18.7101 25.855 18.6067C25.7383 18.5034 25.565 18.5384 25.44 18.5667C25.2633 18.6067 22.4517 20.4667 17.005 24.1417C16.205 24.6917 15.4833 24.9584 14.835 24.9417C14.1217 24.9284 12.7483 24.5401 11.7267 24.2084C10.4733 23.8001 9.47833 23.5851 9.565 22.8934C9.61 22.5334 10.1067 22.1651 11.0533 21.7884C16.8833 19.2484 20.77 17.5734 22.7167 16.7651C28.27 14.4551 29.425 14.0534 30.1767 14.0401Z" fill="#0F172A"/>
<path d="M30.1962 15.0399L30.1944 15.0399C29.9983 15.0434 29.6574 15.0934 28.5885 15.4813C27.5369 15.863 25.881 16.5319 23.1007 17.6884L23.1002 17.6886C21.1629 18.493 17.2844 20.1644 11.4527 22.7052L11.438 22.7116L11.423 22.7175C11.2469 22.7876 11.0979 22.8535 10.9731 22.9145C11.031 22.9348 11.0936 22.9559 11.161 22.9782C11.3137 23.0285 11.4401 23.0682 11.5765 23.111C11.7091 23.1526 11.8513 23.1972 12.0363 23.2575M30.1962 15.0399L12.0363 23.2575M30.1962 15.0399C30.1942 15.0399 30.2066 15.0398 30.2298 15.0422C30.2395 15.0432 30.2495 15.0445 30.2597 15.0461C30.265 15.0903 30.2709 15.151 30.275 15.2211C30.2817 15.3361 30.2812 15.4379 30.2746 15.5058L30.2745 15.5073M30.1962 15.0399L30.2745 15.5073M12.0363 23.2575C12.036 23.2574 12.0357 23.2573 12.0354 23.2572L11.7267 24.2084L12.0364 23.2576L12.0363 23.2575ZM30.2745 15.5073C29.9793 18.6194 28.6844 26.2507 28.0204 29.796L28.0203 29.7966M30.2745 15.5073L28.0203 29.7966M28.0203 29.7966C27.8954 30.4657 27.7284 30.7995 27.6163 30.9485C27.5763 31.0018 27.5488 31.0256 27.5346 31.0352M28.0203 29.7966L27.5346 31.0352M27.5346 31.0352C27.2532 31.0591 26.9611 30.9764 26.5467 30.733C26.3345 30.6084 26.1135 30.4557 25.8553 30.2723C25.8152 30.2438 25.7741 30.2145 25.732 30.1846C25.514 30.0291 25.2713 29.8561 25.0187 29.6907C24.1463 29.1182 23.4635 28.6539 22.782 28.1896L22.6943 28.1299C22.0415 27.6852 21.3816 27.2356 20.5572 26.6919L20.5565 26.6914C20.2173 26.4682 20.0662 26.3136 20.0038 26.2337C20.0499 26.1599 20.1446 26.04 20.3302 25.8513C20.43 25.7497 20.5383 25.6454 20.6626 25.5257C20.6775 25.5113 20.6927 25.4967 20.7082 25.4818C20.8474 25.3476 21.002 25.1977 21.1565 25.0375L21.1565 25.0376C21.1565 25.0376 21.1617 25.0323 21.175 25.0194C21.1793 25.0152 21.184 25.0106 21.1892 25.0056C21.2018 24.9935 21.217 24.979 21.235 24.9619C21.2858 24.9136 21.3537 24.8498 21.4372 24.7716C21.5895 24.6292 21.7885 24.4442 22.021 24.2279L22.0893 24.1645C22.6119 23.6784 23.2849 23.0522 23.9523 22.4218C24.6182 21.7929 25.2855 21.1533 25.795 20.6416C26.0485 20.387 26.2728 20.1542 26.4412 19.9655C26.5242 19.8724 26.6055 19.7768 26.6729 19.687C26.7063 19.6425 26.7462 19.5864 26.7836 19.5236C26.8111 19.4775 26.8824 19.355 26.9213 19.1908L26.9234 19.1823L26.9252 19.1738C26.9572 19.0274 26.9668 18.8427 26.9389 18.6553C26.9116 18.4712 26.8245 18.1296 26.518 17.8581C26.2167 17.5912 25.8752 17.5392 25.6591 17.5374C25.4635 17.5357 25.2909 17.5751 25.2261 17.5898L25.2192 17.5914L27.5346 31.0352ZM21.9043 1.00005L21.902 1.00007C16.3495 1.02598 11.0332 3.24991 7.11607 7.18536C3.19898 11.1208 0.99994 16.4475 1 22.0001C1 27.5696 3.21249 32.911 7.15076 36.8493C11.089 40.7876 16.4305 43.0001 22 43.0001C27.5695 43.0001 32.911 40.7876 36.8492 36.8493C40.7875 32.911 43 27.5696 43 22.0001C43 16.4305 40.7875 11.0891 36.8492 7.15081C32.911 3.21255 27.5695 1.00005 22 1.00005H21.9043ZM10.4865 23.2177C10.4825 23.223 10.4799 23.2257 10.4797 23.2256C10.4794 23.2256 10.4814 23.223 10.4865 23.2177ZM25.8433 19.4796C25.8677 19.4667 25.8635 19.4706 25.8394 19.4817C25.8409 19.4809 25.8422 19.4802 25.8433 19.4796ZM27.5324 31.0366C27.5265 31.0403 27.5235 31.0412 27.5233 31.0408C27.5231 31.0403 27.5262 31.0383 27.5324 31.0366Z" stroke="#EFB648" stroke-opacity="0.25" stroke-width="2"/>
</svg>
