<svg width="44" height="44" viewBox="0 0 44 44" fill="none" xmlns="http://www.w3.org/2000/svg">
<rect x="4" y="4" width="35" height="35" rx="13" fill="#EFB648"/>
<path fill-rule="evenodd" clip-rule="evenodd" d="M10.8889 2C8.53141 2 6.27048 2.9365 4.60349 4.60349C2.9365 6.27048 2 8.53141 2 10.8889V33.1111C2 35.4686 2.9365 37.7295 4.60349 39.3965C6.27048 41.0635 8.53141 42 10.8889 42H33.1111C35.4686 42 37.7295 41.0635 39.3965 39.3965C41.0635 37.7295 42 35.4686 42 33.1111V10.8889C42 8.53141 41.0635 6.27048 39.3965 4.60349C37.7295 2.9365 35.4686 2 33.1111 2H10.8889ZM33.8489 17.6778C34.176 17.1874 34.2949 16.5872 34.1795 16.0092C34.064 15.4312 33.7237 14.9227 33.2333 14.5956C32.743 14.2685 32.1428 14.1495 31.5647 14.265C30.9867 14.3804 30.4782 14.7208 30.1511 15.2111C29.3644 16.2556 28.54 17.2556 27.5756 18.1444C26.4578 19.1756 25.3267 19.9489 24.2244 20.4067L24.2067 16.1844C24.143 15.6439 23.8831 15.1455 23.4764 14.7838C23.0696 14.4221 22.5443 14.2223 22 14.2222C20.7956 14.2911 19.7778 15.18 19.7778 16.4444V26.1622C15.4489 24.9622 13.1111 20.7622 13.1111 16.4444C13.1111 15.8551 12.877 15.2898 12.4602 14.8731C12.0435 14.4564 11.4783 14.2222 10.8889 14.2222C10.2995 14.2222 9.73429 14.4564 9.31754 14.8731C8.90079 15.2898 8.66667 15.8551 8.66667 16.4444C8.66667 24.5156 14.2444 30.8889 22 30.8889C22.5894 30.8889 23.1546 30.6548 23.5713 30.238C23.9881 29.8213 24.2222 29.256 24.2222 28.6667V25.1933C27.1822 25.4289 30.0533 27.52 31.1244 29.66C31.2493 29.9302 31.4271 30.1725 31.6473 30.3727C31.8675 30.5728 32.1258 30.7267 32.4066 30.8252C32.6874 30.9236 32.9852 30.9647 33.2822 30.9459C33.5792 30.9271 33.8694 30.8488 34.1356 30.7157C34.4018 30.5826 34.6386 30.3974 34.8318 30.1711C35.0251 29.9448 35.1709 29.6819 35.2606 29.3982C35.3504 29.1144 35.3822 28.8155 35.3542 28.5192C35.3262 28.2229 35.239 27.9353 35.0978 27.6733C34.0356 25.5467 32.0533 23.5578 29.6133 22.26C29.9422 21.9911 30.2689 21.7067 30.5911 21.4111C31.8154 20.2946 32.9084 19.042 33.8489 17.6778Z" fill="#0F172A"/>
<path d="M30.9671 15.7899L30.9499 15.8127C30.148 16.8774 29.282 17.9316 28.2536 18.8795L30.9671 15.7899ZM30.9671 15.7899L30.983 15.766M30.9671 15.7899L30.983 15.766M30.983 15.766C31.1629 15.4963 31.4426 15.3091 31.7606 15.2456C32.0785 15.1821 32.4087 15.2475 32.6784 15.4275C32.9481 15.6074 33.1353 15.8871 33.1988 16.205C33.2619 16.5208 33.1978 16.8487 33.0206 17.1174C32.1244 18.4163 31.0833 19.6089 29.9173 20.6722L29.9152 20.6742C29.6054 20.9583 29.2931 21.2302 28.9804 21.4858L27.8168 22.4371L29.1437 23.1429C31.4219 24.3546 33.2443 26.2004 34.2032 28.1202L34.2102 28.1342L34.2176 28.148C34.2953 28.2921 34.3433 28.4503 34.3586 28.6132C34.374 28.7762 34.3565 28.9406 34.3072 29.0966C34.2578 29.2527 34.1776 29.3973 34.0713 29.5217C33.965 29.6462 33.8348 29.7481 33.6884 29.8213C33.542 29.8945 33.3824 29.9375 33.219 29.9479C33.0557 29.9582 32.8919 29.9356 32.7375 29.8815C32.583 29.8273 32.441 29.7427 32.3198 29.6326C32.1987 29.5225 32.1009 29.3892 32.0323 29.2406L32.0257 29.2264L32.0187 29.2124C31.3896 27.9555 30.2707 26.7758 28.9389 25.8821C27.6019 24.985 25.9823 24.3302 24.3016 24.1965L23.2222 24.1106V25.1933V28.6667C23.2222 28.9908 23.0935 29.3017 22.8642 29.5309C22.635 29.7601 22.3242 29.8889 22 29.8889C14.885 29.8889 9.66667 24.0558 9.66667 16.4444C9.66667 16.1203 9.79544 15.8094 10.0246 15.5802C10.2539 15.351 10.5647 15.2222 10.8889 15.2222C11.213 15.2222 11.5239 15.351 11.7531 15.5802C11.9823 15.8094 12.1111 16.1203 12.1111 16.4444C12.1111 21.0782 14.6323 25.7736 19.5106 27.1259L20.7778 27.4771V26.1622V16.4444C20.7778 15.8057 21.277 15.2783 22.0275 15.2225C22.317 15.2291 22.5951 15.3383 22.8119 15.5311C23.0236 15.7193 23.1629 15.9749 23.207 16.2537L23.2245 20.4109L23.2307 21.9022M30.983 15.766L23.2307 21.9022M23.2307 21.9022L24.608 21.3302M23.2307 21.9022L24.608 21.3302M24.608 21.3302C25.8486 20.8149 27.0769 19.9648 28.2533 18.8798L24.608 21.3302ZM10.8889 1C8.26619 1 5.75091 2.04186 3.89639 3.89639C2.04186 5.75091 1 8.26619 1 10.8889V33.1111C1 35.7338 2.04186 38.2491 3.89639 40.1036C5.75091 41.9581 8.26619 43 10.8889 43H33.1111C35.7338 43 38.2491 41.9581 40.1036 40.1036C41.9581 38.2491 43 35.7338 43 33.1111V10.8889C43 8.26619 41.9581 5.75091 40.1036 3.89639C38.2491 2.04186 35.7338 1 33.1111 1H10.8889Z" stroke="#EFB648" stroke-opacity="0.25" stroke-width="2"/>
</svg>
