
<svg version="1.0" xmlns="http://www.w3.org/2000/svg"
 width="512.000000pt" height="512.000000pt">

<g id="transform"  transform="translate(100.000000,216.000000) scale(0.004,-0.004) rotate(45 140 105)"
fill="#000000" stroke="none">
<path d="M1865 5102 c-16 -11 -94 -84 -172 -163 -150 -153 -167 -181 -144
-242 6 -15 97 -163 202 -329 105 -166 193 -307 196 -314 3 -8 -5 -27 -17 -44
-40 -56 -98 -195 -114 -272 -21 -104 -22 -459 -1 -537 34 -130 122 -247 234
-311 33 -19 61 -39 61 -43 0 -5 -12 -25 -27 -45 -15 -20 -28 -38 -29 -40 -1
-2 -183 62 -405 141 l-404 144 -247 369 c-136 203 -259 379 -273 391 -79 69
-205 9 -205 -99 0 -32 37 -93 269 -441 148 -222 280 -412 293 -423 14 -10 215
-86 447 -169 l422 -150 -7 -45 c-4 -25 -10 -74 -13 -110 l-6 -65 -535 -5
c-415 -4 -540 -8 -558 -18 -27 -15 -558 -809 -568 -849 -4 -15 -1 -44 7 -67
26 -76 117 -109 184 -68 20 13 113 144 274 385 l244 367 494 0 494 0 15 -37
c37 -93 63 -142 111 -211 34 -46 48 -74 40 -77 -6 -2 -205 -47 -442 -100 -268
-60 -439 -103 -455 -114 -14 -10 -179 -258 -367 -552 -370 -576 -367 -570
-327 -639 34 -56 112 -77 173 -46 20 11 119 157 350 518 l323 503 256 57 c140
32 257 56 259 54 2 -1 -10 -32 -27 -67 -16 -35 -39 -100 -50 -143 -78 -305 77
-760 343 -1013 258 -243 546 -243 804 0 206 196 346 504 360 793 7 143 -10
237 -63 353 -19 41 -33 76 -31 78 2 2 119 -23 260 -55 l256 -57 320 -500 c207
-324 330 -506 348 -517 57 -36 142 -16 177 42 40 69 43 63 -326 640 -189 293
-354 542 -368 551 -16 12 -186 54 -455 114 -236 53 -436 98 -443 100 -8 3 4
26 34 67 40 53 106 178 127 241 6 16 39 17 502 17 l495 0 246 -369 c205 -307
252 -373 282 -387 89 -42 195 37 177 133 -8 43 -534 836 -567 855 -18 10 -143
14 -558 18 l-535 5 -6 70 c-4 39 -9 88 -13 110 l-7 40 408 144 c224 79 424
153 443 163 28 15 90 103 308 429 251 378 272 413 272 453 0 99 -109 158 -190
104 -22 -15 -118 -150 -284 -397 l-251 -375 -400 -143 c-220 -78 -402 -143
-405 -142 -7 0 -60 77 -60 87 0 4 28 23 61 42 112 63 209 195 238 320 17 72
13 453 -4 530 -19 83 -59 180 -102 249 -19 29 -32 58 -30 65 3 6 89 144 191
305 103 162 194 307 202 322 18 35 18 73 0 107 -24 45 -308 320 -339 327 -47
12 -93 -3 -126 -41 -26 -29 -31 -43 -31 -86 l0 -51 109 -111 109 -111 -149
-235 c-82 -129 -153 -238 -158 -243 -6 -6 -31 3 -63 21 -212 119 -482 121
-712 6 -37 -20 -71 -32 -75 -29 -3 3 -74 113 -157 243 l-151 237 108 111 109
111 0 52 c0 44 -5 56 -33 87 -41 46 -105 56 -152 26z"/>
</g>
</svg>
