<svg xmlns="http://www.w3.org/2000/svg" viewBox="0 0 18.42 20.47">
<g id="Слой_2" data-name="Слой 2">
<g id="Слой_1-2" data-name="Слой 1">
<g id="transform">
<path d="M6.41.07C6.35.11,6,.4,5.72.72c-.6.61-.66.72-.57,1,0,.06.39.65.81,1.31s.77,1.23.78,1.26a.29.29,0,0,1-.07.18,3.73,3.73,0,0,0-.45,1.08,9.11,9.11,0,0,0,0,2.15,2.09,2.09,0,0,0,.94,1.25.75.75,0,0,1,.24.17.69.69,0,0,1-.11.18l-.11.16s-.73-.25-1.62-.57L3.93,8.29l-1-1.48C2.4,6,1.91,5.3,1.85,5.25A.5.5,0,0,0,1,5.64c0,.13.15.38,1.08,1.77C2.7,8.3,3.23,9.06,3.28,9.1s.86.34,1.79.68l1.69.6,0,.18a4.17,4.17,0,0,0-.05.44l0,.26-2.14,0a14.88,14.88,0,0,0-2.23.07C2.17,11.41.05,14.58,0,14.74A.44.44,0,0,0,0,15a.49.49,0,0,0,.73.27,13.77,13.77,0,0,0,1.1-1.54l1-1.46h4l.06.14a3.39,3.39,0,0,0,.44.85c.14.18.19.29.16.31L5.69,14c-1.07.24-1.75.41-1.82.45s-.71,1-1.47,2.21C.92,18.94.94,18.92,1.1,19.2a.54.54,0,0,0,.69.18,19.72,19.72,0,0,0,1.4-2.07l1.29-2,1-.23c.56-.13,1-.23,1-.22a1,1,0,0,1-.11.27c-.06.14-.15.4-.2.57a4.71,4.71,0,0,0,1.37,4,2.13,2.13,0,0,0,3.22,0,4.92,4.92,0,0,0,1.44-3.17A2.72,2.72,0,0,0,12,15.16a2.05,2.05,0,0,1-.13-.31s.48.09,1,.22l1,.23,1.28,2a24,24,0,0,0,1.39,2.06.53.53,0,0,0,.71-.16c.16-.28.17-.26-1.31-2.56-.75-1.18-1.41-2.17-1.47-2.21A16.09,16.09,0,0,0,12.73,14L11,13.58s0-.11.14-.27a4.24,4.24,0,0,0,.5-1c0-.06.16-.06,2-.06h2l1,1.47c.82,1.23,1,1.49,1.12,1.55a.51.51,0,0,0,.71-.53,38.25,38.25,0,0,0-2.27-3.42,14.88,14.88,0,0,0-2.23-.07l-2.14,0,0-.28c0-.16,0-.36-.05-.44l0-.16L13.3,9.8c.9-.32,1.7-.61,1.77-.65A10.06,10.06,0,0,0,16.3,7.43c1-1.51,1.09-1.65,1.09-1.81a.49.49,0,0,0-.76-.42A14.13,14.13,0,0,0,15.5,6.79l-1,1.5-1.6.57c-.88.32-1.61.58-1.62.57A1.28,1.28,0,0,1,11,9.08a1,1,0,0,1,.25-.16,2.19,2.19,0,0,0,1-1.28,10.74,10.74,0,0,0,0-2.12,3.15,3.15,0,0,0-.41-1,1,1,0,0,1-.12-.26S12,3.68,12.45,3l.81-1.29a.47.47,0,0,0,0-.43A9.12,9.12,0,0,0,11.9,0a.48.48,0,0,0-.5.16.39.39,0,0,0-.13.34V.73l.44.44.43.45-.59.94c-.33.51-.61.95-.63,1s-.13,0-.26-.09a3.06,3.06,0,0,0-2.84,0,1,1,0,0,1-.3.12s-.3-.46-.63-1l-.61-.94.44-.45L7.15.73V.52A.41.41,0,0,0,7,.17.48.48,0,0,0,6.41.07Z"/>
</g>
</g>
</g>
</svg>