<svg width="18.42" height="20.47" xmlns="http://www.w3.org/2000/svg">

 <g>
  <title>background</title>
  <rect fill="none" id="canvas_background" height="402" width="582" y="-1" x="-1"/>
 </g>
 <g>
  <title>Layer 1</title>
  <g id="transform">
   <path id="svg_1" d="m6.392898,0.095905c-0.06,0.04 -0.41,0.33 -0.69,0.65c-0.6,0.61 -0.66,0.72 -0.57,1c0,0.06 0.39,0.65 0.81,1.31s0.77,1.23 0.78,1.26a0.29,0.29 0 0 1 -0.07,0.18a3.73,3.73 0 0 0 -0.45,1.08a9.11,9.11 0 0 0 0,2.15a2.09,2.09 0 0 0 0.94,1.25a0.75,0.75 0 0 1 0.24,0.17a0.69,0.69 0 0 1 -0.11,0.18l-0.11,0.16s-0.73,-0.25 -1.62,-0.57l-1.63,-0.6l-1,-1.48c-0.53,-0.81 -1.02,-1.51 -1.08,-1.56a0.5,0.5 0 0 0 -0.85,0.39c0,0.13 0.15,0.38 1.08,1.77c0.62,0.89 1.15,1.65 1.2,1.69s0.86,0.34 1.79,0.68l1.69,0.6l0,0.18a4.17,4.17 0 0 0 -0.05,0.44l0,0.26l-2.14,0a14.88,14.88 0 0 0 -2.23,0.07c-0.17,0.08 -2.29,3.25 -2.34,3.41a0.44,0.44 0 0 0 0,0.26a0.49,0.49 0 0 0 0.73,0.27a13.77,13.77 0 0 0 1.1,-1.54l1,-1.46l4,0l0.06,0.14a3.39,3.39 0 0 0 0.44,0.85c0.14,0.18 0.19,0.29 0.16,0.31l-1.8,0.43c-1.07,0.24 -1.75,0.41 -1.82,0.45s-0.71,1 -1.47,2.21c-1.48,2.28 -1.46,2.26 -1.3,2.54a0.54,0.54 0 0 0 0.69,0.18a19.72,19.72 0 0 0 1.4,-2.07l1.29,-2l1,-0.23c0.56,-0.13 1,-0.23 1,-0.22a1,1 0 0 1 -0.11,0.27c-0.06,0.14 -0.15,0.4 -0.2,0.57a4.71,4.71 0 0 0 1.37,4a2.13,2.13 0 0 0 3.22,0a4.92,4.92 0 0 0 1.44,-3.17a2.72,2.72 0 0 0 -0.2,-1.37a2.05,2.05 0 0 1 -0.13,-0.31s0.48,0.09 1,0.22l1,0.23l1.28,2a24,24 0 0 0 1.39,2.06a0.53,0.53 0 0 0 0.71,-0.16c0.16,-0.28 0.17,-0.26 -1.31,-2.56c-0.75,-1.18 -1.41,-2.17 -1.47,-2.21a16.09,16.09 0 0 0 -1.74,-0.43l-1.73,-0.42s0,-0.11 0.14,-0.27a4.24,4.24 0 0 0 0.5,-1c0,-0.06 0.16,-0.06 2,-0.06l2,0l1,1.47c0.82,1.23 1,1.49 1.12,1.55a0.51,0.51 0 0 0 0.71,-0.53a38.25,38.25 0 0 0 -2.27,-3.42a14.88,14.88 0 0 0 -2.23,-0.07l-2.14,0l0,-0.28c0,-0.16 0,-0.36 -0.05,-0.44l0,-0.16l1.52,-0.57c0.9,-0.32 1.7,-0.61 1.77,-0.65a10.06,10.06 0 0 0 1.23,-1.72c1,-1.51 1.09,-1.65 1.09,-1.81a0.49,0.49 0 0 0 -0.76,-0.42a14.13,14.13 0 0 0 -1.13,1.59l-1,1.5l-1.6,0.57c-0.88,0.32 -1.61,0.58 -1.62,0.57a1.28,1.28 0 0 1 -0.28,-0.35a1,1 0 0 1 0.25,-0.16a2.19,2.19 0 0 0 1,-1.28a10.74,10.74 0 0 0 0,-2.12a3.15,3.15 0 0 0 -0.41,-1a1,1 0 0 1 -0.12,-0.26s0.28,-0.58 0.73,-1.26l0.81,-1.29a0.47,0.47 0 0 0 0,-0.43a9.12,9.12 0 0 0 -1.36,-1.28a0.48,0.48 0 0 0 -0.5,0.16a0.39,0.39 0 0 0 -0.13,0.34l0,0.23l0.44,0.44l0.43,0.45l-0.59,0.94c-0.33,0.51 -0.61,0.95 -0.63,1s-0.13,0 -0.26,-0.09a3.06,3.06 0 0 0 -2.84,0a1,1 0 0 1 -0.3,0.12s-0.3,-0.46 -0.63,-1l-0.61,-0.94l0.44,-0.45l0.43,-0.47l0,-0.21a0.41,0.41 0 0 0 -0.15,-0.35a0.48,0.48 0 0 0 -0.59,-0.1z"/>
  </g>
 </g>
</svg>